<?xml version="1.0" standalone="no"?>
<!DOCTYPE svg PUBLIC "-//W3C//DTD SVG 1.0//EN" "http://www.w3.org/TR/2001/REC-SVG-20010904/DTD/svg10.dtd">
<svg xmlns="http://www.w3.org/2000/svg" xmlns:xlink="http://www.w3.org/1999/xlink" id="body_1" width="465" height="41">

<g transform="matrix(0.87078655 0 0 0.87234044 0 0)">
	<g transform="matrix(0.4296058 0 0 0.42727274 0 0)">
		<g transform="matrix(0.4398443 0 0 0.4398443 -0 0.038926654)">
			<g transform="matrix(0.1 0 -0 -0.1 0 250)">
                <path d="M15733 2476C 15487 2429 15314 2318 15235 2156C 15125 1931 15192 1717 15460 1437L15460 1437L15550 1343L15522 1331C 15463 1304 15201 1154 15133 1108C 14916 962 14820 814 14820 622C 14820 470 14859 365 14955 261C 15110 94 15361 10 15706 10C 16070 10 16318 106 16563 340L16563 340L16660 432L16698 404C 16718 388 16756 354 16783 327C 16821 288 16830 272 16830 244C 16830 214 16825 207 16795 194C 16776 187 16745 180 16726 180C 16687 180 16670 160 16670 113C 16670 56 16635 59 17321 59L17321 59L17955 58L17964 83C 17970 99 17970 121 17964 142L17964 142L17954 175L17866 182C 17739 193 17640 223 17493 294C 17356 361 17253 428 17013 606L17013 606L16862 719L17012 982C 17173 1265 17254 1385 17311 1430C 17387 1491 17511 1520 17694 1520C 17810 1520 17820 1526 17820 1587C 17820 1645 17855 1642 17184 1642L17184 1642L16565 1642L16557 1608C 16551 1588 16552 1565 16558 1549C 16568 1524 16572 1523 16678 1517C 16802 1510 16872 1490 16914 1452C 16940 1427 16942 1421 16937 1365C 16934 1323 16917 1267 16882 1183C 16831 1058 16727 856 16709 845C 16698 838 16573 936 16232 1218L16232 1218L16010 1403L16094 1450C 16309 1571 16479 1718 16537 1835C 16674 2108 16538 2374 16215 2465C 16133 2488 15834 2495 15733 2476zM16103 2340C 16173 2314 16246 2246 16280 2175C 16300 2134 16304 2109 16305 2034C 16305 1949 16303 1940 16266 1865C 16208 1747 16085 1632 15911 1534L15911 1534L15878 1515L15798 1600C 15691 1715 15603 1832 15567 1908C 15541 1964 15538 1979 15542 2048C 15546 2140 15574 2203 15633 2257C 15681 2300 15782 2348 15847 2360C 15922 2374 16038 2365 16103 2340zM15876 1064C 15980 978 16165 827 16287 728C 16474 578 16509 546 16501 532C 16496 522 16451 475 16401 427C 16262 293 16100 195 15949 154C 15869 132 15688 129 15610 149C 15469 184 15348 274 15292 386C 15250 470 15237 539 15242 662C 15245 763 15247 771 15289 856C 15324 926 15350 961 15414 1025C 15489 1100 15650 1219 15676 1220C 15682 1220 15772 1150 15876 1064z" stroke="none" fill="#000000" fill-rule="nonzero" />
                <path d="M19745 2220C 19468 2190 19214 2088 19058 1942C 18831 1730 18776 1386 18923 1105C 18968 1020 19105 885 19205 826C 19571 613 20166 590 20583 772C 20621 788 20658 800 20667 798C 20676 796 20699 768 20719 735C 20748 688 20761 674 20783 672C 20831 666 20840 683 20823 743C 20802 813 20792 1276 20810 1320C 20826 1360 20882 1380 20975 1380C 21068 1380 21100 1391 21100 1424C 21100 1438 21096 1452 21090 1455C 21085 1458 20893 1461 20663 1461C 20294 1461 20245 1459 20238 1445C 20225 1422 20237 1393 20263 1386C 20275 1383 20317 1380 20355 1380C 20394 1380 20442 1375 20463 1369C 20528 1351 20531 1339 20528 1105L20528 1105L20525 898L20460 859C 20325 777 20173 745 19925 745C 19773 746 19731 749 19655 768C 19511 804 19408 859 19319 949C 19189 1079 19138 1218 19139 1445C 19139 1659 19189 1790 19320 1921C 19435 2037 19561 2095 19760 2125C 19995 2161 20299 2125 20455 2042C 20565 1983 20662 1856 20714 1702C 20738 1632 20749 1623 20796 1634C 20827 1642 20826 1654 20785 1782C 20755 1876 20725 2009 20705 2133C 20699 2169 20697 2171 20667 2168C 20640 2166 20633 2159 20624 2130C 20609 2086 20595 2086 20471 2135C 20268 2214 19993 2246 19745 2220z" stroke="none" fill="#000000" fill-rule="nonzero" />
                <path d="M199 2183C 18 2180 12 2179 7 2158C -6 2110 11 2102 137 2098C 224 2095 264 2090 288 2077L288 2077L320 2059L320 1477C 320 1104 316 882 309 857C 294 802 265 788 142 778C 83 774 29 768 23 765C 7 760 6 714 21 704C 27 701 184 698 370 698C 556 698 713 701 719 704C 734 714 733 760 718 765C 711 768 655 774 594 779C 476 788 447 799 430 840C 423 856 421 1038 422 1376L422 1376L425 1888L625 1527C 940 959 1124 653 1157 643C 1163 641 1179 658 1193 682C 1224 737 1532 1333 1712 1685L1712 1685L1849 1955L1850 1408C 1850 1020 1847 854 1839 836C 1823 801 1773 780 1703 779C 1671 779 1625 775 1600 772C 1563 766 1554 761 1552 741C 1550 728 1553 713 1558 708C 1564 702 1730 698 1985 698C 2361 698 2404 699 2412 714C 2417 723 2419 739 2415 749C 2409 768 2352 780 2257 780C 2198 780 2146 801 2128 832C 2118 850 2114 974 2112 1430C 2110 1964 2111 2008 2127 2040C 2151 2086 2190 2099 2311 2099C 2415 2100 2434 2109 2428 2152L2428 2152L2425 2175L2151 2183C 1928 2189 1874 2188 1863 2178C 1856 2170 1711 1900 1541 1576L1541 1576L1232 988L1207 1026C 1087 1218 774 1771 654 2005L654 2005L562 2185L473 2185C 425 2186 301 2184 199 2183z" stroke="none" fill="#000000" fill-rule="nonzero" />
                <path d="M3422 1868C 3373 1795 3269 1618 3100 1315C 2797 772 2812 789 2610 772L2610 772L2525 765L2525 731L2525 696L2827 696C 3151 695 3147 694 3134 744C 3129 765 3120 768 3058 774C 2976 781 2950 793 2950 822C 2950 833 2987 914 3032 1001L3032 1001L3114 1160L3384 1160L3655 1160L3679 1117C 3760 972 3820 850 3820 832C 3820 800 3783 783 3697 775L3697 775L3619 768L3622 732L3625 696L4015 697L4405 698L4408 734C 4410 759 4407 770 4398 770C 4391 770 4348 774 4302 780C 4203 791 4145 815 4105 861C 4088 880 4003 1019 3915 1170C 3638 1649 3478 1910 3459 1910C 3455 1910 3438 1891 3422 1868zM3495 1434C 3553 1332 3600 1246 3597 1244C 3595 1242 3495 1241 3376 1242L3376 1242L3160 1245L3267 1433C 3325 1536 3377 1620 3381 1620C 3384 1620 3436 1536 3495 1434z" stroke="none" fill="#000000" fill-rule="nonzero" />
                <path d="M9554 1902C 9528 1885 9413 1690 9130 1185C 8956 873 8931 837 8867 806C 8830 788 8789 779 8720 773L8720 773L8625 765L8625 731L8625 696L8930 696L9235 696L9235 730L9235 764L9158 775C 9062 788 9043 803 9059 851C 9065 870 9104 946 9144 1020L9144 1020L9218 1155L9487 1158L9757 1160L9834 1021C 9911 883 9935 811 9910 795C 9904 791 9859 783 9812 776L9812 776L9725 765L9725 730L9725 695L10114 697C 10361 698 10506 702 10512 708C 10518 714 10520 730 10516 744C 10511 766 10503 769 10452 774C 10343 785 10285 800 10245 828C 10203 857 10170 909 9905 1365C 9767 1603 9619 1844 9586 1885C 9574 1899 9560 1907 9554 1902zM9655 1335L9708 1245L9599 1242C 9540 1241 9440 1241 9376 1242L9376 1242L9262 1245L9299 1310C 9320 1346 9370 1432 9410 1502L9410 1502L9484 1630L9543 1527C 9576 1471 9626 1385 9655 1335z" stroke="none" fill="#000000" fill-rule="nonzero" />
                <path d="M12982 1868C 12932 1793 12827 1614 12657 1310C 12441 924 12424 894 12383 849C 12340 801 12288 782 12175 773L12175 773L12085 765L12085 731L12085 696L12388 696C 12667 695 12691 696 12696 713C 12709 754 12693 767 12619 774C 12536 781 12510 793 12510 822C 12510 833 12547 914 12592 1001L12592 1001L12675 1160L12945 1160L13215 1160L13239 1117C 13329 955 13381 848 13378 828C 13374 798 13339 783 13255 773L13255 773L13185 765L13185 730L13185 696L13575 697L13965 698L13968 734C 13970 759 13967 770 13958 770C 13951 770 13908 774 13862 780C 13768 790 13707 815 13668 856C 13654 872 13540 1059 13417 1272C 13189 1662 13035 1910 13019 1910C 13015 1910 12998 1891 12982 1868zM13055 1434C 13114 1332 13160 1247 13157 1244C 13155 1242 13055 1241 12936 1242L12936 1242L12720 1245L12827 1433C 12886 1536 12937 1620 12941 1620C 12945 1620 12996 1536 13055 1434z" stroke="none" fill="#000000" fill-rule="nonzero" />
                <path d="M22062 1868C 22011 1792 21906 1612 21740 1315C 21523 927 21503 894 21463 849C 21420 801 21368 782 21255 773L21255 773L21165 765L21165 731L21165 696L21468 696C 21747 695 21771 696 21776 713C 21789 754 21773 767 21699 774C 21616 781 21590 793 21590 822C 21590 833 21627 914 21672 1001L21672 1001L21755 1160L22025 1160L22295 1160L22319 1117C 22400 972 22460 850 22460 832C 22460 800 22423 783 22337 775L22337 775L22259 768L22262 732L22265 696L22655 697L23045 698L23048 734C 23050 759 23047 770 23038 770C 23031 770 22988 774 22942 780C 22848 790 22787 815 22748 856C 22733 872 22642 1022 22544 1190C 22267 1669 22117 1910 22099 1910C 22095 1910 22078 1891 22062 1868zM22135 1434C 22193 1332 22239 1246 22237 1244C 22235 1242 22135 1241 22016 1242L22016 1242L21800 1245L21907 1433C 21965 1536 22017 1620 22021 1620C 22025 1620 22076 1536 22135 1434z" stroke="none" fill="#000000" fill-rule="nonzero" />
                <path d="M7410 1870C 6950 1824 6680 1602 6680 1267C 6680 1109 6731 990 6844 882C 7000 735 7245 660 7570 660C 7788 661 7930 687 8056 751C 8099 772 8137 787 8142 784C 8146 781 8166 754 8186 723C 8220 670 8223 668 8257 673C 8302 681 8303 682 8289 716C 8275 749 8264 1080 8274 1135C 8284 1188 8314 1202 8433 1209L8433 1209L8535 1215L8538 1253L8541 1290L8153 1288L7765 1285L7765 1250L7765 1215L7866 1209C 7973 1202 8003 1193 8021 1157C 8028 1145 8035 1078 8038 1008C 8043 862 8047 869 7940 811C 7843 759 7774 746 7590 746C 7394 745 7311 761 7189 822C 6991 921 6896 1116 6930 1355C 6962 1578 7110 1722 7363 1776C 7462 1797 7712 1796 7816 1775C 8005 1736 8129 1624 8189 1438C 8202 1397 8230 1388 8263 1413C 8278 1424 8278 1430 8255 1493C 8225 1574 8200 1710 8200 1790C 8200 1879 8155 1901 8130 1823C 8123 1802 8115 1782 8111 1778C 8108 1774 8064 1786 8014 1805C 7964 1824 7885 1846 7839 1854C 7729 1872 7517 1880 7410 1870z" stroke="none" fill="#000000" fill-rule="nonzero" />
                <path d="M27302 1870C 26859 1824 26590 1597 26590 1270C 26590 1051 26707 875 26922 771C 27346 566 27941 655 28155 955C 28288 1141 28287 1410 28154 1591C 28009 1789 27652 1906 27302 1870zM27597 1775C 27749 1746 27880 1658 27942 1544C 27983 1468 28000 1389 28000 1270C 28000 1099 27961 989 27866 896C 27761 792 27630 748 27430 748C 27223 748 27080 800 26973 913C 26879 1012 26845 1110 26847 1275C 26848 1401 26868 1479 26920 1560C 26995 1677 27138 1760 27305 1783C 27377 1793 27524 1789 27597 1775z" stroke="none" fill="#000000" fill-rule="nonzero" />
                <path d="M4564 1841C 4562 1839 4560 1822 4560 1804C 4560 1766 4565 1764 4705 1757C 4749 1754 4798 1746 4813 1739L4813 1739L4841 1726L4838 1285C 4835 888 4833 841 4818 818C 4798 788 4781 784 4652 774L4652 774L4559 768L4562 733L4565 697L4865 697L5165 697L5168 732C 5171 767 5171 767 5124 774C 5098 777 5058 780 5035 780C 4982 780 4943 809 4935 853C 4932 871 4931 1058 4932 1270L4932 1270L4935 1655L5035 1560C 5189 1413 5628 1012 5795 865C 6011 675 6059 638 6084 642L6084 642L6105 645L6110 1177L6115 1709L6137 1732C 6157 1751 6174 1755 6262 1760C 6319 1763 6371 1769 6378 1773C 6393 1783 6394 1826 6380 1835C 6366 1844 5794 1844 5780 1835C 5766 1826 5767 1783 5782 1774C 5789 1770 5835 1763 5884 1760C 6025 1750 6022 1760 6018 1283L6018 1283L6015 962L5865 1097C 5535 1395 5289 1623 5184 1728L5184 1728L5072 1838L4820 1841C 4682 1843 4566 1843 4564 1841z" stroke="none" fill="#000000" fill-rule="nonzero" />
                <path d="M10665 1748C 10644 1694 10608 1618 10583 1578C 10536 1502 10535 1485 10576 1469C 10604 1459 10607 1463 10668 1557C 10776 1722 10827 1753 10990 1754C 11110 1755 11141 1749 11170 1718C 11189 1697 11190 1684 11190 1274C 11190 981 11187 843 11179 826C 11163 792 11132 782 11017 775L11017 775L10919 768L10922 733L10925 697L11310 697L11695 698L11695 731L11695 765L11605 773C 11486 784 11473 787 11450 810C 11431 829 11430 845 11430 1261L11430 1261L11430 1692L11458 1720C 11492 1754 11565 1766 11672 1756C 11799 1744 11845 1712 11942 1565C 11975 1516 12007 1472 12013 1468C 12023 1462 12080 1485 12080 1495C 12080 1498 12067 1522 12050 1548C 12012 1610 11946 1752 11930 1805L11930 1805L11918 1845L11310 1845L10701 1845L10665 1748z" stroke="none" fill="#000000" fill-rule="nonzero" />
                <path d="M23250 1836C 23244 1830 23240 1816 23240 1803C 23240 1771 23273 1760 23366 1760C 23453 1760 23496 1743 23507 1702C 23512 1687 23515 1488 23515 1260C 23515 881 23513 842 23498 818C 23479 789 23468 786 23330 773C 23251 766 23245 763 23242 741C 23240 728 23242 714 23247 709C 23252 704 23553 699 23917 697L23917 697L24578 693L24600 749C 24611 780 24655 865 24697 939C 24777 1080 24778 1089 24719 1090C 24697 1090 24686 1078 24648 1013C 24585 906 24530 846 24462 813L24462 813L24405 785L24102 785L23798 785L23774 813L23749 842L23752 1276L23755 1709L23777 1732C 23797 1751 23814 1755 23905 1760C 24009 1766 24030 1773 24030 1805C 24030 1841 24020 1842 23636 1843C 23409 1844 23255 1841 23250 1836z" stroke="none" fill="#000000" fill-rule="nonzero" />
                <path d="M24920 1825C 24914 1810 24917 1774 24924 1769C 24924 1768 24973 1765 25033 1761C 25125 1755 25143 1751 25163 1732L25163 1732L25185 1709L25188 1274L25191 839L25161 810C 25137 786 25123 780 25087 780C 24945 780 24903 764 24919 717C 24925 701 24971 700 25588 698L25588 698L26251 695L26283 770C 26301 811 26344 893 26379 953C 26414 1013 26440 1067 26436 1075C 26427 1098 26363 1095 26355 1070C 26343 1031 26252 904 26207 863C 26125 788 26120 787 25805 782C 25475 778 25453 782 25432 845C 25422 876 25420 977 25422 1290C 25424 1513 25429 1703 25434 1713C 25449 1745 25495 1760 25574 1760C 25668 1760 25700 1771 25700 1804C 25700 1818 25696 1832 25690 1835C 25685 1838 25511 1842 25304 1843C 24938 1845 24927 1844 24920 1825z" stroke="none" fill="#000000" fill-rule="nonzero" />
			</g>
		</g>
	</g>
</g>
</svg>