<?xml version="1.0" standalone="no"?>
<!DOCTYPE svg PUBLIC "-//W3C//DTD SVG 1.0//EN" "http://www.w3.org/TR/2001/REC-SVG-20010904/DTD/svg10.dtd">
<svg xmlns="http://www.w3.org/2000/svg" xmlns:xlink="http://www.w3.org/1999/xlink" id="body_1" width="222" height="94">

<g transform="matrix(0.77894735 0 0 0.7833334 0 0)">
	<g transform="matrix(0.10000001 0 0 0.10000001 0 0)">
        <path transform="matrix(1 0 0 1 260.58984 16.894531)"  d="M0 0C 0.77110106 -0.00197388 1.5422021 -0.00394775 2.33667 -0.00598145C 15.492654 0.05000464 15.492654 0.05000464 20.410156 2.1054688C 22.534372 5.3003073 24.179123 8.622064 25.746094 12.1171875C 33.803917 29.83176 42.380253 47.278694 51.076912 64.686195C 52.021667 66.57845 52.964764 68.47153 53.90741 70.36484C 60.9533 84.510155 68.17468 98.53203 75.81055 112.36963C 79.11596 118.36404 82.23979 124.44394 85.34766 130.54297C 90.14995 139.88608 95.15106 149.07799 100.374756 158.19116C 104.878914 166.08107 109.160416 174.07697 113.41016 182.10547C 118.62874 191.95767 123.951645 201.7324 129.47876 211.41626C 133.49815 218.46423 137.42273 225.5612 141.32336 232.67523C 147.1937 243.37943 153.20464 253.98013 159.4021 264.49976C 163.20059 270.96893 166.85005 277.50238 170.41016 284.10547C 175.07411 292.74973 179.94293 301.25406 184.91797 309.72266C 189.47498 317.48352 193.95642 325.28516 198.41016 333.10547C 205.10016 344.84518 211.8782 356.5315 218.70557 368.1919C 220.97597 372.0726 223.23941 375.95734 225.50293 379.84204C 238.67502 402.4444 251.91245 425.0068 265.271 447.4995C 267.16983 450.69858 269.06372 453.90054 270.95673 457.10303C 279.3911 471.371 287.8582 485.60724 296.64844 499.66016C 299.63312 504.43692 302.52655 509.2672 305.41016 514.10547C 312.2882 501.71033 318.94226 489.21808 325.41016 476.60547C 329.929 467.7939 334.49023 459.02115 339.28516 450.35547C 344.9491 440.11316 350.27 429.70355 355.59714 419.28375C 360.07156 410.53638 364.5824 401.82422 369.34766 393.23047C 375.20612 382.66196 380.6749 371.90024 386.16916 361.1397C 391.23248 351.2282 396.37302 341.38156 401.77344 331.64844C 406.68283 322.73578 411.28345 313.66687 415.91016 304.60547C 420.98505 294.6664 426.0617 284.74228 431.47266 274.98047C 436.69308 265.56073 441.62463 256.0016 446.53516 246.41797C 447.12595 245.26514 447.12595 245.26514 447.7287 244.08902C 449.2675 241.08604 450.8061 238.083 452.34436 235.07976C 457.7122 224.60541 463.20422 214.20032 468.78125 203.83594C 470.0328 201.50925 471.2842 199.18248 472.53516 196.85547C 473.008 195.97607 473.008 195.97607 473.49042 195.07892C 478.66388 185.44919 483.722 175.76344 488.72266 166.04297C 489.06323 165.38103 489.40378 164.71909 489.75467 164.03708C 491.0825 161.45586 492.4102 158.87457 493.73767 156.29317C 498.9907 146.08345 504.34827 135.93114 509.78906 125.82031C 511.038 123.498825 512.2868 121.17727 513.53516 118.85547C 513.8502 118.26957 514.1653 117.68367 514.48987 117.08002C 519.6635 107.44991 524.7218 97.76381 529.72266 88.04297C 530.2335 87.05006 530.2335 87.05006 530.7547 86.03708C 532.0825 83.45586 533.41016 80.874565 534.7377 78.29317C 541.9282 64.31769 549.3376 50.45909 556.7908 36.622314C 559.7955 31.03716 562.7684 25.440094 565.6406 19.785156C 566.3794 18.338587 566.3794 18.338587 567.13306 16.862793C 568.03937 15.080417 568.9364 13.293246 569.822 11.500488C 572.0978 7.0363703 574.0132 3.8026512 578.41016 1.1054688C 581.5754 0.08497046 584.4879 -0.02341283 587.802 -0.02734375C 588.899 -0.02935791 589.99603 -0.03137207 591.1263 -0.03344727C 592.32983 -0.02885498 593.5334 -0.0242627 594.77344 -0.01953125C 596.05444 -0.01687256 597.3355 -0.01421387 598.65533 -0.01147461C 608.8627 0.02759123 619.0625 0.26009604 629.2656 0.54296875C 630.4531 0.57573223 630.4531 0.57573223 631.6646 0.60915756C 635.0023 0.70145446 638.34 0.7943162 641.67773 0.88723564C 670.89514 1.6980982 700.08636 2.1888804 729.3164 2.0976562C 730.6179 2.0941541 731.91943 2.090652 733.26044 2.0870438C 746.23096 2.0513954 759.201 1.9966465 772.1711 1.8850994C 777.0167 1.8469267 781.8623 1.8242255 786.708 1.8048439C 788.9799 1.7918134 791.25183 1.7714422 793.5236 1.7434044C 796.63983 1.7052747 799.7554 1.6913667 802.8718 1.6831055C 803.7869 1.6655873 804.702 1.6480691 805.6449 1.6300201C 811.78656 1.6490816 811.78656 1.6490816 814.92816 3.9482727C 819.4211 10.48825 819.03546 18.466936 818.41016 26.105469C 817.58026 29.655228 816.3454 32.243793 813.6142 34.760117C 810.9889 36.362606 809.4544 36.48838 806.39575 36.506104C 805.3956 36.519444 804.3955 36.53278 803.36505 36.546524C 802.28296 36.54664 801.20087 36.546757 800.08594 36.546875C 798.95233 36.56008 797.81866 36.57329 796.6507 36.5869C 793.008 36.627808 789.36554 36.6494 785.72266 36.66797C 737.9835 35.053497 737.9835 35.053497 695.5664 52.878906C 683.9283 64.89652 683.9702 79.83666 684.03595 95.512024C 684.0332 97.48661 684.0291 99.46119 684.02386 101.43577C 684.0133 106.84337 684.0214 112.2508 684.03265 117.658394C 684.0415 123.49768 684.033 129.33694 684.0268 135.17622C 684.0173 146.60925 684.02386 158.04222 684.0361 169.47523C 684.04553 178.77023 684.0488 188.06522 684.04767 197.36021C 684.04755 198.02135 684.0475 198.68248 684.04736 199.36363C 684.04706 202.0476 684.04663 204.73158 684.0462 207.41556C 684.04224 232.5826 684.055 257.7496 684.07574 282.91663C 684.0941 305.2535 684.0999 327.59036 684.0945 349.92725C 684.0941 351.361 684.0938 352.7947 684.09344 354.22845C 684.09326 354.9373 684.0931 355.64612 684.0929 356.3764C 684.0921 359.94492 684.09125 363.5134 684.09045 367.0819C 684.0903 367.78598 684.09015 368.49005 684.08997 369.21548C 684.086 387.9019 684.0915 406.58832 684.1 425.27472C 684.1009 427.28687 684.1018 429.29898 684.10266 431.3111C 684.1036 433.3112 684.1045 435.31128 684.1054 437.31137C 684.1093 446.58987 684.1089 455.86838 684.107 465.14688C 684.10486 476.46225 684.1101 487.7776 684.12463 499.09293C 684.13184 504.86282 684.1359 510.6327 684.13135 516.4026C 684.12726 521.69147 684.1325 526.9803 684.145 532.26917C 684.1479 534.17554 684.1475 536.082 684.1434 537.98834C 683.66547 564.1669 683.66547 564.1669 693.76953 587.52344C 708.06213 601.3056 730.0705 603.07153 748.84766 604.16797C 749.5174 604.20935 750.1871 604.2508 750.8771 604.29346C 759.4319 604.82086 767.9821 605.18024 776.5508 605.3828C 777.39087 605.4029 778.231 605.423 779.09656 605.4436C 783.21 605.5382 787.3231 605.61725 791.43726 605.676C 792.94257 605.7045 794.4478 605.7331 795.9531 605.7617C 796.6351 605.7669 797.3171 605.7721 798.0197 605.77747C 802.7998 605.87854 806.687 606.36676 810.1406 609.85156C 814.17535 617.0148 813.74994 625.9531 812.21094 633.7656C 810.71643 638.1325 810.71643 638.1325 808.41016 640.10547C 805.3044 640.6738 802.2435 640.495 799.09766 640.41797C 798.14215 640.3974 797.1866 640.3768 796.2021 640.3556C 789.8119 640.2136 783.4225 640.0546 777.0332 639.876C 755.09766 639.26495 733.165 638.8169 711.22266 638.54297C 710.00134 638.52747 710.00134 638.52747 708.7554 638.51166C 653.84753 637.8167 598.9428 637.8567 544.03516 638.54297C 543.2316 638.5528 542.42804 638.5627 541.60016 638.5728C 512.37897 638.9326 483.15387 639.52734 453.9511 640.6548C 451.6132 640.7241 449.6718 640.70465 447.41016 640.10547C 442.62317 634.74493 442.14645 629.2558 442.2539 622.2578C 442.63733 616.97626 443.2697 610.7858 447.41016 607.10547C 451.52567 605.99286 455.63174 605.92365 459.8672 605.8594C 461.37216 605.8279 462.87714 605.79614 464.38208 605.76416C 465.1711 605.7488 465.96014 605.7334 466.7731 605.7176C 518.10535 607.1847 518.10535 607.1847 562.16016 586.35547C 572.7005 571.1305 571.561 551.23755 571.5304 533.54706C 571.5308 531.6649 571.53174 529.7828 571.533 527.90063C 571.5352 522.74915 571.53125 517.5977 571.52625 512.4462C 571.5219 506.88333 571.5234 501.3204 571.5241 495.7575C 571.52466 486.12616 571.52155 476.4948 571.51587 466.8635C 571.50775 452.93826 571.5051 439.01306 571.5039 425.08786C 571.5017 402.49387 571.49506 379.8999 571.4856 357.3059C 571.4764 335.36093 571.4693 313.41592 571.4651 291.47095C 571.46497 290.7941 571.46484 290.11725 571.46466 289.41986C 571.4634 282.6224 571.4621 275.82495 571.4609 269.02747C 571.45044 212.05347 571.4328 155.07947 571.41016 98.10547C 571.1359 98.65486 570.8617 99.20426 570.57916 99.77031C 563.8601 113.23061 557.13873 126.689766 550.415 140.14769C 547.1632 146.65627 543.91223 153.16519 540.6631 159.67505C 537.82623 165.35886 534.98785 171.04193 532.1478 176.72417C 530.6486 179.72394 529.15027 182.72415 527.65326 185.72505C 521.0416 198.97722 514.3465 212.17212 507.3926 225.24818C 505.08112 229.61798 502.84406 234.02615 500.60547 238.4336C 500.1154 239.39537 499.62527 240.35716 499.12033 241.34808C 497.59076 244.34995 496.06274 247.3526 494.53516 250.35547C 487.01077 265.14474 479.4126 279.8917 471.72125 294.59485C 468.72214 300.33783 465.7555 306.09756 462.78516 311.85547C 458.28787 320.56476 453.76675 329.2605 449.187 337.92676C 445.5588 344.8011 441.98364 351.70258 438.41016 358.60547C 434.04984 367.028 429.6677 375.43784 425.23828 383.82422C 421.59436 390.73346 418.0013 397.6687 414.41016 404.60547C 410.43442 412.2851 406.44882 419.9587 402.41016 427.60547C 397.8021 436.3319 393.26065 445.0924 388.72266 453.85547C 384.96423 461.112 381.19403 468.36218 377.41016 475.60547C 366.14392 497.18085 354.96692 518.80225 343.83524 540.4473C 341.9057 544.1992 339.975 547.95056 338.042 551.7007C 335.5786 556.48004 333.11838 561.261 330.66016 566.04297C 330.24683 566.84674 329.8335 567.6505 329.40762 568.47864C 323.57907 579.82153 317.855 591.2127 312.18726 602.6367C 284.79013 657.8522 284.79013 657.8522 275.41016 664.10547C 270.0185 663.67096 266.77924 658.897 263.41016 655.10547C 261.04135 652.13306 258.866 649.0558 256.72266 645.91797C 256.12598 645.055 255.52931 644.1921 254.91455 643.303C 248.95935 634.6041 243.44856 625.6448 237.96729 616.64307C 235.51337 612.644 232.99158 608.6888 230.47266 604.73047C 206.60046 567.09045 184.25414 528.4403 162.01831 489.81958C 158.39925 483.53787 154.75653 477.2709 151.09033 471.0166C 145.2117 460.98553 139.4563 450.89468 133.79834 440.73755C 129.41185 432.86975 124.95495 425.0439 120.47266 417.23047C 114.5104 406.83325 108.64842 396.38538 102.843994 385.89893C 98.90217 378.78024 94.9245 371.68347 90.91016 364.60547C 85.57525 355.19562 80.30957 345.7486 75.06421 336.28857C 70.887436 328.75763 66.687775 321.24 62.472656 313.73047C 56.748695 303.52716 51.086315 293.29074 45.44165 283.04346C 40.94859 274.88773 36.436676 266.7427 31.910156 258.60547C 25.0618 246.2914 18.250246 233.95732 11.449417 221.61696C 9.069926 217.30005 6.6861844 212.98552 4.3007812 208.67188C -2.5448906 196.28908 -9.351341 183.88722 -16.074463 171.43726C -19.577072 164.95695 -23.120033 158.5011 -26.712124 152.06999C -29.962664 146.24547 -33.182735 140.40454 -36.39453 134.5586C -37.148514 133.18695 -37.148514 133.18695 -37.917725 131.7876C -39.141987 129.56035 -40.366024 127.33296 -41.589844 125.10547C -41.65853 180.53838 -41.711384 235.97127 -41.74304 291.4042C -41.74679 297.95047 -41.750675 304.4967 -41.75464 311.04297C -41.755424 312.3462 -41.756214 313.6494 -41.757023 314.99213C -41.770073 336.0862 -41.793724 357.18024 -41.8213 378.2743C -41.84937 399.92313 -41.866024 421.57196 -41.87211 443.22083C -41.876225 456.57635 -41.88921 469.93182 -41.913593 483.28735C -41.929466 492.44913 -41.934242 501.61087 -41.930347 510.77264C -41.92843 516.05634 -41.931343 521.3399 -41.94746 526.62354C -41.962128 531.4675 -41.962753 536.3113 -41.95254 541.1553C -41.95128 542.9011 -41.95503 544.64703 -41.964493 546.3928C -42.037525 560.7031 -41.709114 576.67303 -31.875 588.09766C -11.545744 607.4707 25.995338 604.768 51.976562 605.3164C 53.698082 605.3547 55.419598 605.393 57.141113 605.4314C 60.57298 605.5075 64.00475 605.57007 67.43701 605.62524C 69.04135 605.6586 70.645676 605.6924 72.25 605.72656C 73.3504 605.73914 73.3504 605.73914 74.47304 605.75195C 78.79845 605.856 82.425186 606.3897 86.41016 608.10547C 90.940216 613.8852 90.868935 622.7565 90.125 629.8086C 89.32575 633.8653 88.58019 637.27795 85.41016 640.10547C 82.2633 640.4481 79.489395 640.5222 76.34766 640.41797C 74.88308 640.3937 74.88308 640.3937 73.388916 640.3689C 70.0616 640.30554 66.73646 640.2089 63.410156 640.10547C 62.293827 640.0726 61.1775 640.03973 60.027344 640.00586C 55.607906 639.8749 51.188534 639.74176 46.76935 639.6025C -27.48724 637.2686 -101.895996 637.3188 -176.15234 639.66797C -194.88803 640.25323 -194.88803 640.25323 -203.02734 640.35547C -203.87563 640.37683 -204.7239 640.3982 -205.5979 640.42017C -211.17372 640.4527 -211.17372 640.4527 -213.24756 638.72217C -216.84526 634.389 -216.92764 629.6433 -216.90234 624.23047C -216.92651 623.2076 -216.92651 623.2076 -216.95117 622.16406C -216.95598 617.10925 -215.9077 613.60583 -213.58984 609.10547C -209.81047 605.3261 -205.09982 605.93365 -200.01172 605.8594C -198.45792 605.8279 -196.90413 605.79614 -195.35034 605.76416C -194.53351 605.7488 -193.71667 605.7334 -192.87509 605.7176C -141.01393 607.44824 -141.01393 607.44824 -96.07422 587.58984C -84.72433 573.50507 -86.292534 551.341 -86.31137 534.3197C -86.30636 532.2444 -86.30048 530.169 -86.293816 528.0937C -86.27811 522.42676 -86.27459 516.7599 -86.27317 511.093C -86.26946 504.96844 -86.254295 498.8439 -86.240555 492.71936C -86.21832 482.12012 -86.20322 471.52084 -86.193184 460.92157C -86.18265 449.81146 -86.16799 438.7014 -86.14791 427.5913C -86.14666 426.89917 -86.14541 426.20703 -86.14412 425.4939C -86.13776 421.97852 -86.131325 418.46313 -86.124855 414.94775C -86.079254 390.08212 -86.042786 365.2165 -86.01172 340.35083C -85.98153 316.20206 -85.94718 292.05328 -85.90723 267.90454C -85.906 267.1595 -85.90476 266.41443 -85.903496 265.6468C -85.89113 258.1643 -85.87868 250.6818 -85.866165 243.19928C -85.840675 227.95808 -85.81575 212.71689 -85.79117 197.4757C -85.79004 196.77501 -85.78891 196.07433 -85.78774 195.3524C -85.71235 148.60344 -85.65011 101.854454 -85.58984 55.10547C -86.34201 54.81269 -87.09418 54.519913 -87.86914 54.21826C -90.68949 53.064713 -93.35729 51.70081 -96.055176 50.28784C -119.679924 38.01057 -145.71355 37.16998 -171.88672 36.929688C -173.05902 36.917667 -174.23132 36.905647 -175.43915 36.893265C -180.31784 36.844635 -185.19627 36.79708 -190.0752 36.77954C -193.67944 36.764126 -197.28273 36.724033 -200.88672 36.679688C -202.5398 36.68255 -202.5398 36.68255 -204.22626 36.68547C -211.81288 36.563515 -211.81288 36.563515 -215.74048 34.248047C -220.24556 29.028694 -219.95271 22.93718 -219.84766 16.378906C -219.50557 12.035488 -218.72383 7.9431367 -216.58984 4.1054688C -213.41124 1.9864012 -212.67725 1.8585187 -209.04643 1.878418C -207.64455 1.878637 -207.64455 1.878637 -206.21432 1.8788605C -205.188 1.889188 -204.16168 1.8995157 -203.10425 1.9101562C -202.01819 1.9130315 -200.93213 1.9159067 -199.81316 1.918869C -197.43658 1.9264321 -195.06004 1.938646 -192.68352 1.9548645C -188.86186 1.9808234 -185.04031 1.9947805 -181.21858 2.0056152C -175.74986 2.0221775 -170.28119 2.043495 -164.8125 2.0688477C -150.60684 2.1335065 -136.40111 2.1579604 -122.19531 2.1679688C -121.49072 2.168544 -120.786125 2.1691194 -120.06018 2.169712C -87.448 2.193897 -54.879013 1.4746363 -22.285828 0.41410828C -14.856488 0.17997725 -7.433216 0.01083457 0 0z" stroke="none" fill="#FFFFFF" fill-rule="nonzero" />
        <path transform="matrix(1 0 0 1 2035.375 -0.1875)"  d="M0 0C 1.105502 0.00060425 2.211004 0.0012085 3.350006 0.00183105C 81.96398 0.11737872 160.98193 9.780824 279.0039 56.58203C 283.9459 59.086006 286.90475 59.828335 292.375 59.0625C 293.5661 58.915546 294.7572 58.768593 295.98438 58.617188C 296.85577 58.47539 297.72717 58.333595 298.625 58.1875C 298.83124 56.929375 299.0375 55.67125 299.25 54.375C 300.35416 48.932583 301.84564 43.628616 303.4375 38.3125C 303.67355 37.480007 303.9096 36.647514 304.15283 35.789795C 305.67896 30.837208 306.9898 27.967157 311.625 25.1875C 317.64795 23.179852 325.23834 23.095036 331.28906 25.046875C 333.5822 26.197622 335.79294 27.355434 337.625 29.1875C 337.99985 31.604956 338.31885 34.009117 338.60547 36.4375C 338.7979 37.993877 338.99088 39.55019 339.18433 41.106445C 339.28604 41.933258 339.38773 42.76007 339.49252 43.61194C 346.75696 102.08497 362.03235 158.53728 380.10938 214.51172C 380.4036 215.42447 380.6978 216.33722 381.00095 217.27763C 382.40683 221.59843 383.86218 225.88837 385.44727 230.14697C 385.73282 230.92 386.01837 231.69301 386.31256 232.48946C 386.84497 233.91525 387.3894 235.33665 387.94867 236.75212C 389.5206 240.95447 389.85532 243.85497 388.625 248.1875C 383.5722 254.10393 375.91412 256.8163 368.375 257.46875C 357.31964 257.77026 357.31964 257.77026 352.625 254.1875C 349.8892 250.2515 348.42578 246.05661 346.98828 241.52734C 346.49298 240.00621 345.99753 238.48514 345.50195 236.96411C 345.2468 236.17372 344.99164 235.38333 344.72876 234.569C 333.46445 199.77638 319.78793 164.95026 296.625 136.1875C 295.56924 134.84558 295.56924 134.84558 294.4922 133.47656C 290.35672 128.30353 286.02737 123.32626 281.5625 118.4375C 280.8571 117.65935 280.8571 117.65935 280.13745 116.86548C 222.34781 54.414577 125.47763 42.077194 44.984863 38.697266C -15.982067 36.42121 -76.93787 40.57622 -135.375 59.1875C -136.28589 59.47593 -137.19676 59.764355 -138.13525 60.061523C -173.64432 71.47824 -207.34404 88.74352 -236.375 112.1875C -236.93027 112.62707 -237.48553 113.06664 -238.05762 113.51953C -253.57526 125.82696 -267.74734 140.15424 -279.375 156.1875C -280.22992 157.33635 -281.0854 158.48479 -281.9414 159.63281C -318.57587 209.29286 -331.9116 269.5088 -334.375 330.1875C -334.4111 331.03925 -334.44717 331.891 -334.48438 332.76855C -334.66107 337.58536 -334.5793 342.3744 -334.375 347.1875C -334.32858 348.32526 -334.2822 349.463 -334.23438 350.63525C -332.2362 396.15622 -324.5865 440.96683 -304.375 482.1875C -303.98587 482.98495 -303.59674 483.78238 -303.1958 484.604C -292.11584 507.05893 -277.695 527.1421 -260.375 545.1875C -259.84003 545.7497 -259.30508 546.3119 -258.7539 546.8911C -251.0517 554.94684 -243.07234 562.2221 -234.12842 568.874C -232.4019 570.16736 -230.70201 571.49 -229.0039 572.8203C -180.55927 610.224 -117.64599 627.78876 -57.6875 634.4375C -56.94045 634.52057 -56.193398 634.60364 -55.423706 634.6893C -36.595375 636.7548 -17.933798 637.393 1 637.375C 2.7576065 637.3741 2.7576065 637.3741 4.55072 637.37317C 86.86187 637.2583 180.71619 627.235 249.0981 576.9751C 250.9681 575.6522 252.8968 574.4115 254.85216 573.2184C 259.7054 570.11115 263.8334 567.4183 265.81238 561.8414C 266.23575 557.8766 266.26047 554.0206 266.13257 550.0459C 266.13217 548.54004 266.1375 547.0342 266.14804 545.5284C 266.16028 541.46216 266.09238 537.4009 266.00897 533.3356C 265.9347 529.06226 265.93335 524.7888 265.92346 520.51495C 265.89685 513.33545 265.82312 506.15775 265.71558 498.979C 265.5646 488.89606 265.4985 478.81387 265.44965 468.73C 265.40854 460.85635 265.34528 452.98285 265.27734 445.10938C 265.27026 444.2736 265.26318 443.4378 265.2559 442.57672C 265.21335 437.74435 265.1592 432.91235 265.08902 428.0803C 265.06903 426.62524 265.052 425.17014 265.03836 423.715C 264.8843 407.94003 264.65567 389.0355 252.625 377.1875C 238.54265 366.03787 219.25363 364.20132 202 363.125C 200.72543 363.04193 199.45088 362.95886 198.1377 362.8733C 186.45865 362.1404 174.77 361.78546 163.07178 361.52905C 142.57341 361.06653 142.57341 361.06653 139.0625 357.8125C 136.60616 353.327 136.41148 349.43582 136.375 344.4375C 136.35437 343.74655 136.33376 343.05563 136.3125 342.34375C 136.27405 337.22998 137.26942 333.73856 139.625 329.1875C 141.625 327.1875 141.625 327.1875 143.61987 326.94458C 154.35136 326.99768 165.07932 327.08868 175.80605 327.4199C 202.37376 328.23364 228.92511 328.3365 255.50386 328.32184C 261.6923 328.31924 267.8807 328.32166 274.06912 328.3232C 284.44916 328.325 294.8292 328.32266 305.20923 328.31787C 317.09088 328.31244 328.97253 328.3142 340.8542 328.3197C 351.18246 328.32428 361.51077 328.32486 371.83905 328.32227C 377.95203 328.32074 384.065 328.3204 390.17798 328.3238C 417.9858 328.33707 445.76038 328.1096 473.55573 327.2506C 477.02838 327.1447 480.50125 327.04642 483.9741 326.94778C 487.37833 326.85074 490.7822 326.75314 494.18582 326.63776C 496.80405 326.57025 499.07346 326.59546 501.625 327.1875C 506.90237 332.67816 506.91037 339.08267 506.85156 346.32422C 506.44678 351.43997 505.31537 356.49713 501.625 360.1875C 493.86865 361.8966 485.48154 361.40805 477.5696 361.5751C 429.95157 360.24673 429.95157 360.24673 388.52734 378.97656C 372.0763 398.09625 377.45572 433.19208 377.49603 456.80014C 377.50003 459.2721 377.50253 461.74405 377.5047 464.216C 376.18488 556.41064 376.18488 556.41064 392.51465 646.5862C 394.7578 654.275 394.7578 654.275 394.10938 658.73047C 390.86426 664.102 384.40527 666.8987 378.5 668.5625C 372.00766 669.6097 367.2296 670.1647 361.625 666.1875C 351.26938 655.09644 344.29422 640.3046 337.375 626.9375C 333.96124 620.6506 329.54266 614.2502 322.9375 611.0625C 317.3927 609.59784 313.7322 611.4521 308.7422 613.96094C 307.01248 614.819 307.01248 614.819 305.2478 615.69434C 304.638 615.99884 304.02817 616.30334 303.39987 616.61707C 288.76862 623.898 273.8954 630.3506 258.625 636.1875C 257.4924 636.6205 256.3598 637.0534 255.19287 637.4995C 199.78055 658.4501 140.8822 668.42395 82 672.9375C 80.84356 673.02625 80.84356 673.02625 79.66376 673.11676C 74.32007 673.51917 68.97421 673.86755 63.625 674.1875C 62.848602 674.23553 62.072205 674.2836 61.272278 674.3331C 42.615494 675.45264 23.933277 675.4314 5.25 675.4375C 4.003963 675.43835 4.003963 675.43835 2.7327538 675.4393C -22.05661 675.45166 -46.687603 675.1786 -71.35071 672.4121C -73.38359 672.1865 -75.41747 671.97437 -77.45215 671.7656C -109.78154 668.41785 -141.96776 662.53723 -173.375 654.1875C -174.5084 653.88763 -175.64182 653.58777 -176.80957 653.2788C -213.461 643.4646 -248.4151 630.11676 -282.375 613.1875C -283.16986 612.79205 -283.96472 612.39667 -284.7837 611.98926C -303.28867 602.7019 -320.72287 591.46405 -337.375 579.1875C -337.95685 578.7587 -338.5387 578.32996 -339.13818 577.8882C -355.21854 565.9525 -371.90756 552.5989 -384.72656 537.14453C -386.75186 534.7401 -388.91025 532.47894 -391.0625 530.1875C -441.25787 475.04114 -463.14905 398.4596 -460.11328 324.97266C -457.3557 271.25714 -443.0744 218.8382 -412.375 174.1875C -411.72604 173.22868 -411.72604 173.22868 -411.06396 172.25049C -405.05695 163.40498 -398.40067 155.23863 -391.375 147.1875C -390.77173 146.48367 -390.16843 145.77985 -389.54688 145.05469C -387.844 143.07901 -386.11615 141.12956 -384.375 139.1875C -383.94608 138.70813 -383.51712 138.22876 -383.0752 137.73486C -376.5235 130.44019 -369.81998 123.58756 -362.375 117.1875C -361.31708 116.25593 -360.25983 115.32359 -359.20312 114.390625C -290.70294 54.307762 -199.6687 22.374617 0 0z" stroke="none" fill="#FFFFFF" fill-rule="nonzero" />
        <path transform="matrix(1 0 0 1 0 852)"  d="M0 0C 940.5 0 1881 0 2850 0C 2850 3.96 2850 7.92 2850 12C 1909.5 12 969 12 0 12C 0 8.04 0 4.08 0 0z" stroke="none" fill="#FFFFFF" fill-rule="nonzero" />
        <path transform="matrix(1 0 0 1 2794.0625 565.25)"  d="M0 0C 12.767069 10.78108 21.166664 26.11288 22.9375 42.75C 24.192295 61.439835 19.048454 77.897606 7.6875 92.6875C -5.2814546 107.47744 -21.685366 114.050934 -40.773438 116.03125C -56.679436 116.665375 -72.71021 110.68446 -84.625 100.25C -86.12587 98.77172 -87.60708 97.27305 -89.0625 95.75C -90.009964 94.83154 -90.009964 94.83154 -90.97656 93.89453C -102.11184 82.39135 -106.71428 65.88171 -107.3125 50.25C -106.99784 33.101036 -101.412415 17.205214 -89.26953 4.8554688C -88.541214 4.160664 -87.81289 3.4658594 -87.0625 2.75C -86.426994 2.1067579 -85.79148 1.4635156 -85.13672 0.80078125C -61.86343 -21.41244 -24.36846 -17.903358 0 0z" stroke="none" fill="#FFFFFF" fill-rule="nonzero" />
        <path transform="matrix(1 0 0 1 1379.9492 564.20703)"  d="M0 0C 2.4779246 2.166761 4.7736864 4.417405 7.0507812 6.7929688C 7.7558985 7.4671483 8.461016 8.141328 9.1875 8.8359375C 21.067627 20.897095 24.871067 37.35725 25.050781 53.79297C 24.12817 72.450226 15.854921 87.9014 2.453125 100.73047C -10.949473 112.23709 -28.31848 118.06195 -45.94922 116.79297C -59.21052 115.49428 -70.5003 111.03724 -80.94922 102.79297C -81.57313 102.33277 -82.19703 101.87258 -82.83984 101.39844C -95.79242 91.2756 -102.89107 74.73086 -104.94922 58.79297C -106.49912 39.792305 -101.62334 21.83556 -89.12891 7.1015625C -65.83971 -17.564955 -26.945223 -20.164307 0 0z" stroke="none" fill="#FFFFFF" fill-rule="nonzero" />
        <path transform="matrix(1 0 0 1 43 1015)"  d="M0 0C 1.8727341 2.2314827 2.8596773 3.804336 4.0625 6.375C 4.821131 7.848577 5.581694 9.32116 6.34375 10.792969C 6.760117 11.618452 7.1764846 12.443935 7.6054688 13.294434C 10.28827 18.499405 13.199685 23.5801 16.0625 28.6875C 17.367268 31.034405 18.670956 33.381866 19.972656 35.73047C 20.303104 36.32642 20.633553 36.922367 20.974014 37.536377C 24.997004 44.794353 29.002674 52.061886 33.00833 59.329437C 37.821934 68.06243 42.652946 76.78551 47.5 85.5C 52.34775 94.215744 57.17938 102.94012 61.99359 111.67441C 63.984722 115.286255 65.97769 118.89709 67.97049 122.50801C 69.6925 125.62867 71.41321 128.75003 73.131836 131.87256C 74.87719 135.04333 76.62592 138.21223 78.37695 141.37988C 79.03736 142.57599 79.696556 143.77275 80.35449 144.97021C 81.26182 146.6212 82.17376 148.26965 83.08594 149.91797C 83.60204 150.85406 84.11816 151.79018 84.6499 152.75464C 85.93414 155.09523 85.93414 155.09523 88 157C 88.356026 156.33282 88.71204 155.66566 89.07886 154.97827C 95.90602 142.20068 102.80421 129.4795 109.96826 116.88696C 114.30875 109.24851 118.57438 101.57051 122.8125 93.875C 123.1473 93.26717 123.48211 92.659355 123.82706 92.03311C 125.53457 88.932655 127.24118 85.83171 128.94727 82.73047C 149.21303 45.895016 149.21303 45.895016 156.55127 32.79883C 159.62444 27.313297 162.6384 21.809229 165.54688 16.234375C 166.11833 15.163003 166.68979 14.091631 167.27856 12.987793C 168.35509 10.967815 169.40977 8.935984 170.43823 6.8911133C 173.90096 0.47841212 173.90096 0.47841212 176.98096 -0.8623047C 180.88634 -1.4566615 184.12968 -0.7740617 188 0C 188 59.07 188 118.14 188 179C 183.38 179 178.76 179 174 179C 173.67 131.81 173.34 84.62 173 36C 167.72 45.57 162.44 55.14 157 65C 149.9375 77.625 149.9375 77.625 146.49219 83.765625C 142.83224 90.292816 139.1951 96.83256 135.5625 103.375C 134.94052 104.49519 134.31856 105.61539 133.67773 106.76953C 131.78482 110.179504 129.89233 113.58971 128 117C 120.49313 130.52861 112.98199 144.05482 105.4375 157.5625C 104.87797 158.56683 104.318436 159.57118 103.74194 160.60596C 102.682434 162.50027 101.60992 164.3874 100.52295 166.26611C 98.9559 168.99597 98.9559 168.99597 97.65283 171.9331C 96.29373 174.6974 95.190125 176.82848 93 179C 89.199455 179.83401 85.822815 179.6122 82 179C 74.9604 166.62766 67.991035 154.21933 61.125 141.75C 60.79052 141.14264 60.456036 140.53528 60.11142 139.90952C 58.751133 137.43939 57.39089 134.96924 56.030746 132.49904C 47.441708 116.90474 38.784653 101.34964 29.996826 85.866455C 24.798656 76.68708 19.712137 67.44679 14.642822 58.1958C 14.010456 57.044506 13.378091 55.89321 12.7265625 54.70703C 12.17565 53.70132 11.624737 52.69561 11.057129 51.659424C 8.102264 46.40302 5.0383472 41.208595 2 36C 1.67 83.19 1.34 130.38 1 179C -3.62 179 -8.24 179 -13 179C -13 119.93 -13 60.86 -13 0C -8.252493 -0.9495014 -4.5986557 -1.5945879 0 0z" stroke="none" fill="#FFFFFF" fill-rule="nonzero" />
        <path transform="matrix(1 0 0 1 940 1025)"  d="M0 0C 13.99097 10.51906 23.861607 26.738842 27 44C 27.02398 45.666492 27.028486 47.333576 27 49C 25.210468 49.83791 23.418303 50.670193 21.625 51.5C 20.627266 51.96406 19.629532 52.428123 18.601562 52.90625C 16 54 16 54 14 54C 13.708672 52.98422 13.417344 51.968437 13.1171875 50.921875C 7.514153 31.885954 -0.40615392 17.165781 -18 7C -41.0853 -4.428648 -69.394905 -3.8291166 -93.41797 4.1328125C -100.34364 6.7837048 -106.19907 10.409541 -112 15C -113.25104 15.968731 -113.25104 15.968731 -114.52734 16.957031C -128.132 28.255821 -136.35799 45.63815 -139 63C -139.10957 63.652267 -139.21915 64.304535 -139.33203 64.97656C -141.87651 83.09326 -139.609 101.36488 -132 118C -131.58105 118.93199 -131.16211 119.86398 -130.73047 120.82422C -122.55087 137.34842 -107.78412 148.225 -91 155C -69.152565 162.35971 -44.689884 162.28015 -23.507812 152.79297C -5.747463 143.71501 4.256731 129.0127 10.3125 110.5C 12.237603 103.084785 13.58816 95.529816 15 88C -11.4 88 -37.8 88 -65 88C -65 83.38 -65 78.76 -65 74C -33.98 74 -2.96 74 29 74C 29 97.24394 29 97.24394 27.375 104.25C 27.196787 105.067345 27.018574 105.88469 26.83496 106.72681C 21.474018 130.05507 9.218194 150.58907 -11.375 163.5625C -35.800438 177.25555 -65.28207 178.06573 -91.89453 171.0039C -107.263596 166.35295 -119.84246 158.44891 -131 147C -131.66386 146.34515 -132.32773 145.6903 -133.01172 145.01562C -150.04305 127.10402 -155.56717 101.14458 -155.34937 77.250244C -154.66039 50.49242 -146.45314 25.987597 -127 7C -94.84944 -23.431278 -35.720314 -24.71377 0 0z" stroke="none" fill="#FFFFFF" fill-rule="nonzero" />
        <path transform="matrix(1 0 0 1 1877 1025)"  d="M0 0C 13.99097 10.51906 23.861607 26.738842 27 44C 27.02398 45.666492 27.028486 47.333576 27 49C 25.210468 49.83791 23.418303 50.670193 21.625 51.5C 20.627266 51.96406 19.629532 52.428123 18.601562 52.90625C 16 54 16 54 14 54C 13.708672 52.98422 13.417344 51.968437 13.1171875 50.921875C 7.514153 31.885954 -0.40615392 17.165781 -18 7C -41.157986 -4.4646335 -69.19154 -3.6744096 -93.3125 4.0625C -110.7013 10.5833 -123.89149 23.352829 -131.93604 39.92871C -141.99014 62.46672 -143.19557 88.6562 -134.6875 111.875C -133.82219 113.92979 -132.9274 115.97247 -132 118C -131.58105 118.93199 -131.16211 119.86398 -130.73047 120.82422C -122.55087 137.34842 -107.78412 148.225 -91 155C -69.152565 162.35971 -44.689884 162.28015 -23.507812 152.79297C -5.747463 143.71501 4.256731 129.0127 10.3125 110.5C 12.237603 103.084785 13.58816 95.529816 15 88C -11.4 88 -37.8 88 -65 88C -65 83.38 -65 78.76 -65 74C -33.98 74 -2.96 74 29 74C 29 97.24394 29 97.24394 27.375 104.25C 27.196787 105.067345 27.018574 105.88469 26.83496 106.72681C 21.474018 130.05507 9.218194 150.58907 -11.375 163.5625C -35.800438 177.25555 -65.28207 178.06573 -91.89453 171.0039C -107.263596 166.35295 -119.84246 158.44891 -131 147C -131.66386 146.34515 -132.32773 145.6903 -133.01172 145.01562C -150.04305 127.10402 -155.56717 101.14458 -155.34937 77.250244C -154.66039 50.49242 -146.45314 25.987597 -127 7C -94.84944 -23.431278 -35.720314 -24.71377 0 0z" stroke="none" fill="#FFFFFF" fill-rule="nonzero" />
        <path transform="matrix(1 0 0 1 2701 1012)"  d="M0 0C 1.2310547 0.3403125 2.4621093 0.680625 3.7304688 1.03125C 25.081537 7.2800775 42.89455 21.181976 54.066406 40.445312C 67.73764 66.37047 69.6411 96.96008 61.933594 125.0625C 58.100437 137.40956 52.28735 148.10927 44 158C 43.403164 158.79665 42.806328 159.59328 42.191406 160.41406C 27.138002 178.17761 3.4464967 185.85072 -19 188C -44.548763 189.75243 -71.56554 184.66725 -91.75781 167.98828C -109.95393 151.85269 -121.70817 131.66132 -124 107C -125.501526 76.84064 -121.60974 48.42882 -101 25C -100.33356 24.238165 -99.66711 23.476328 -98.98047 22.691406C -75.158104 -2.8104603 -32.512344 -9.656361 0 0zM-90.82031 35.402344C -107.24851 54.980755 -111.25228 79.183304 -110 104C -108.20103 122.74232 -100.03933 138.72041 -87 152C -86.32324 152.70125 -85.646484 153.4025 -84.94922 154.125C -70.09098 168.45158 -49.159798 173.8896 -29 174.25C -6.148382 173.8174 13.627681 167.31682 30 151C 31.048008 149.9868 31.048008 149.9868 32.117188 148.95312C 47.68182 132.84343 52.41047 109.812164 52.214844 88.09766C 51.39336 66.91762 43.64078 47.407787 29 32C -4.1206617 2.5437517 -59.940315 2.6492991 -90.82031 35.402344z" stroke="none" fill="#FFFFFF" fill-rule="nonzero" />
        <path transform="matrix(1 0 0 1 534 1015)"  d="M0 0C 12 0 12 0 15.270752 1.8925781C 16.49218 3.1987207 16.49218 3.1987207 17.738281 4.53125C 18.193012 5.0005894 18.647745 5.469929 19.116257 5.953491C 20.545935 7.4429507 21.927984 8.968608 23.3125 10.5C 24.255627 11.494884 25.20158 12.487097 26.15039 13.4765625C 30.070421 17.594446 33.86386 21.817583 37.57422 26.125C 41.64241 30.822544 46.07332 35.14325 50.5 39.5C 55.58961 44.509205 60.530045 49.540226 65.18164 54.958984C 68.768425 58.98497 72.65853 62.719215 76.5 66.5C 81.58961 71.5092 86.530045 76.54023 91.18164 81.958984C 94.768425 85.98497 98.65853 89.719215 102.5 93.5C 107.58961 98.5092 112.530045 103.54023 117.18164 108.958984C 120.768425 112.98497 124.65853 116.719215 128.5 120.5C 130.13792 122.112045 131.77338 123.7266 133.40625 125.34375C 134.12103 126.046936 134.83582 126.750114 135.57227 127.47461C 138.83652 130.87016 141.89838 134.45528 145 138C 150.94 143.94 156.88 149.88 163 156C 163.495 78.78 163.495 78.78 164 0C 168.62 0 173.24 0 178 0C 178 59.07 178 118.14 178 179C 166.6721 180.88799 166.6721 180.88799 162.06982 177.63623C 160.08931 175.81567 158.25801 173.9178 156.4375 171.9375C 155.81682 171.29361 155.19614 170.64972 154.55664 169.98633C 151.4927 166.78181 148.54907 163.49129 145.66016 160.1289C 141.35564 155.17137 136.67491 150.60513 132 146C 122.370895 136.5146 122.370895 136.5146 118.53125 132.03125C 114.13857 126.90817 109.30279 122.234856 104.5 117.5C 99.089485 112.166016 93.78827 106.839554 88.8457 101.06836C 84.93451 96.68534 80.681694 92.62254 76.5 88.5C 71.089485 83.166016 65.78827 77.839554 60.845703 72.06836C 56.93451 67.68534 52.681694 63.622547 48.5 59.5C 46.674606 57.700424 44.851643 55.898384 43.03125 54.09375C 42.232677 53.306778 41.4341 52.519806 40.61133 51.708984C 37.282486 48.255653 34.158535 44.609753 31 41C 25.72 35.72 20.44 30.44 15 25C 14.67 75.82 14.34 126.64 14 179C 9.38 179 4.76 179 0 179C 0 119.93 0 60.86 0 0z" stroke="none" fill="#FFFFFF" fill-rule="nonzero" />
        <path transform="matrix(1 0 0 1 2032.7227 1012.90234)"  d="M0 0C 3.092448 0.03255208 6.184896 0.06510417 9.277344 0.09765625C 18.03584 16.436108 26.296646 33.019283 34.566727 49.607956C 36.53111 53.546852 38.498188 57.4844 40.465057 61.42206C 45.446556 71.39606 50.424637 81.371765 55.402344 91.34766C 60.786823 102.13874 66.171936 112.929504 71.56097 123.71832C 73.88712 128.37556 76.21134 133.03377 78.53398 137.69278C 79.9862 140.60477 81.44014 143.51588 82.894516 146.4268C 83.55948 147.75859 84.22376 149.0907 84.88725 150.42322C 87.69593 156.06326 90.502754 161.69798 93.51282 167.23384C 93.8837 167.91743 94.254585 168.60101 94.63671 169.3053C 95.354454 170.62175 96.07779 171.93517 96.80749 173.24504C 98.35761 176.08432 99.27734 177.80795 99.27734 181.09766C 94.32735 181.09766 89.37734 181.09766 84.27734 181.09766C 76.30999 166.16254 68.69957 151.06119 61.152344 135.91016C 57.233593 128.05203 53.314842 120.19391 49.277344 112.09766C 18.917343 112.09766 -11.4426565 112.09766 -42.722656 112.09766C -53.86924 134.43044 -53.86924 134.43044 -65.011475 156.76538C -67.16516 161.07727 -67.16516 161.07727 -68.17287 163.09352C -68.878555 164.50644 -69.58346 165.91977 -70.287735 167.33339C -71.35265 169.4705 -72.42005 171.60635 -73.48804 173.74194C -73.80296 174.3754 -74.11789 175.00885 -74.44236 175.66148C -76.60863 179.98363 -76.60863 179.98363 -77.72266 181.09766C -80.25315 181.17079 -82.75571 181.19012 -85.28516 181.16016C -85.99607 181.15564 -86.70699 181.15114 -87.43945 181.14648C -89.200554 181.13466 -90.96162 181.11673 -92.72266 181.09766C -91.291245 176.42564 -89.37919 172.1295 -87.18602 167.77715C -86.82975 167.06218 -86.47347 166.34723 -86.10641 165.6106C -84.91644 163.22507 -83.7208 160.8424 -82.52515 158.45972C -81.66901 156.74635 -80.81321 155.03282 -79.95773 153.31914C -77.63714 148.67311 -75.31156 144.02959 -72.98497 139.38657C -70.55246 134.53033 -68.12417 129.67198 -65.69533 124.81392C -61.618378 116.66096 -57.538334 108.509544 -53.4563 100.35913C -48.73115 90.92459 -44.010212 81.48795 -39.291656 72.05011C -34.756218 62.978622 -30.218496 53.908276 -25.679491 44.838573C -23.745464 40.974056 -21.812124 37.109203 -19.879301 33.244083C -17.606789 28.700062 -15.332249 24.157059 -13.056103 19.614855C -12.218907 17.943396 -11.382398 16.271595 -10.546606 14.599434C -9.410354 12.326442 -8.271667 10.054687 -7.132309 7.783249C -6.798074 7.1132293 -6.463838 6.44321 -6.1194744 5.752887C -3.2869477 0.11789626 -3.2869477 0.11789626 0 0zM2.2773438 20.097656C -2.679581 29.988384 -7.6343737 39.880177 -12.5864105 49.773354C -14.885651 54.366604 -17.185637 58.959476 -19.487305 63.551514C -21.706522 67.97912 -23.923811 72.40769 -26.13974 76.836945C -26.987526 78.53066 -27.836018 80.22402 -28.685211 81.91704C -29.870111 84.279625 -31.052544 86.64344 -32.234375 89.00757C -32.589703 89.71463 -32.94503 90.42169 -33.311127 91.15018C -34.989162 93.99373 -34.989162 93.99373 -35.722656 97.09766C -9.9826565 97.09766 15.757343 97.09766 42.277344 97.09766C 36.954292 85.8601 31.632473 74.66129 26.054688 63.554688C 25.417185 62.28156 24.779865 61.00834 24.142715 59.73503C 22.502296 56.457928 20.859476 53.182037 19.216064 49.906433C 17.524685 46.53409 15.8357 43.16054 14.146484 39.78711C 10.859049 33.222816 7.5690627 26.659803 4.2773438 20.097656C 3.6173437 20.097656 2.9573438 20.097656 2.2773438 20.097656z" stroke="none" fill="#FFFFFF" fill-rule="nonzero" />
        <path transform="matrix(1 0 0 1 1095.7227 1012.90234)"  d="M0 0C 3.092448 0.03255208 6.184896 0.06510417 9.277344 0.09765625C 18.03584 16.436108 26.296646 33.019283 34.566727 49.607956C 36.53111 53.546852 38.498188 57.4844 40.465057 61.42206C 45.446556 71.39606 50.424637 81.371765 55.402344 91.34766C 60.786823 102.13874 66.171936 112.929504 71.56097 123.71832C 73.88712 128.37556 76.21134 133.03377 78.53398 137.69278C 79.9862 140.60477 81.44014 143.51588 82.894516 146.4268C 83.55948 147.75859 84.22376 149.0907 84.88725 150.42322C 87.69593 156.06326 90.502754 161.69798 93.51282 167.23384C 93.8837 167.91743 94.254585 168.60101 94.63671 169.3053C 95.354454 170.62175 96.07779 171.93517 96.80749 173.24504C 98.35761 176.08432 99.27734 177.80795 99.27734 181.09766C 94.32735 181.09766 89.37734 181.09766 84.27734 181.09766C 76.30999 166.16254 68.69957 151.06119 61.152344 135.91016C 57.233593 128.05203 53.314842 120.19391 49.277344 112.09766C 18.917343 112.09766 -11.4426565 112.09766 -42.722656 112.09766C -53.86924 134.43044 -53.86924 134.43044 -65.011475 156.76538C -67.16516 161.07727 -67.16516 161.07727 -68.17287 163.09352C -68.878555 164.50644 -69.58346 165.91977 -70.287735 167.33339C -71.35265 169.4705 -72.42005 171.60635 -73.48804 173.74194C -73.80296 174.3754 -74.11789 175.00885 -74.44236 175.66148C -76.60863 179.98363 -76.60863 179.98363 -77.72266 181.09766C -80.25315 181.17079 -82.75571 181.19012 -85.28516 181.16016C -85.99607 181.15564 -86.70699 181.15114 -87.43945 181.14648C -89.200554 181.13466 -90.96162 181.11673 -92.72266 181.09766C -91.291245 176.42564 -89.37919 172.1295 -87.18602 167.77715C -86.82975 167.06218 -86.47347 166.34723 -86.10641 165.6106C -84.91644 163.22507 -83.7208 160.8424 -82.52515 158.45972C -81.66901 156.74635 -80.81321 155.03282 -79.95773 153.31914C -77.63714 148.67311 -75.31156 144.02959 -72.98497 139.38657C -70.55246 134.53033 -68.12417 129.67198 -65.69533 124.81392C -61.618378 116.66096 -57.538334 108.509544 -53.4563 100.35913C -48.73115 90.92459 -44.010212 81.48795 -39.291656 72.05011C -34.756218 62.978622 -30.218496 53.908276 -25.679491 44.838573C -23.745464 40.974056 -21.812124 37.109203 -19.879301 33.244083C -17.606789 28.700062 -15.332249 24.157059 -13.056103 19.614855C -12.218907 17.943396 -11.382398 16.271595 -10.546606 14.599434C -9.410354 12.326442 -8.271667 10.054687 -7.132309 7.783249C -6.798074 7.1132293 -6.463838 6.44321 -6.1194744 5.752887C -3.2869477 0.11789626 -3.2869477 0.11789626 0 0zM2.2773438 20.097656C -2.679581 29.988384 -7.6343737 39.880177 -12.5864105 49.773354C -14.885651 54.366604 -17.185637 58.959476 -19.487305 63.551514C -21.706522 67.97912 -23.923811 72.40769 -26.13974 76.836945C -26.987526 78.53066 -27.836018 80.22402 -28.685211 81.91704C -29.870111 84.279625 -31.052544 86.64344 -32.234375 89.00757C -32.589703 89.71463 -32.94503 90.42169 -33.311127 91.15018C -34.989162 93.99373 -34.989162 93.99373 -35.722656 97.09766C -9.9826565 97.09766 15.757343 97.09766 42.277344 97.09766C 36.954292 85.8601 31.632473 74.66129 26.054688 63.554688C 25.417185 62.28156 24.779865 61.00834 24.142715 59.73503C 22.502296 56.457928 20.859476 53.182037 19.216064 49.906433C 17.524685 46.53409 15.8357 43.16054 14.146484 39.78711C 10.859049 33.222816 7.5690627 26.659803 4.2773438 20.097656C 3.6173437 20.097656 2.9573438 20.097656 2.2773438 20.097656z" stroke="none" fill="#FFFFFF" fill-rule="nonzero" />
        <path transform="matrix(1 0 0 1 1497 1013)"  d="M0 0C 0.4268172 0.8550171 0.4268172 0.8550171 0.862257 1.7273073C 7.831655 15.688325 14.80335 29.648191 21.77751 43.60683C 25.1503 50.357536 28.522352 57.10861 31.892578 63.860596C 34.834927 69.755356 37.778748 75.649376 40.724236 81.542564C 42.279373 84.65412 43.83384 87.766014 45.38653 90.87879C 51.75533 103.64556 58.185753 116.36824 64.87106 128.97243C 67.656906 134.22722 70.345406 139.5294 73.00781 144.84766C 73.50417 145.83705 74.000534 146.82643 74.51193 147.84581C 75.535995 149.88896 76.559044 151.93263 77.581055 153.9768C 79.15387 157.1202 80.733116 160.2603 82.3125 163.40039C 83.31549 165.40346 84.318115 167.4067 85.32031 169.41016C 85.79204 170.34642 86.26376 171.28268 86.74979 172.24733C 87.177986 173.10681 87.606186 173.96628 88.04736 174.8518C 88.4258 175.60724 88.80422 176.36269 89.19412 177.141C 90 179 90 179 90 181C 85.05 181 80.1 181 75 181C 67.032646 166.06488 59.422222 150.96353 51.875 135.8125C 47.95625 127.95438 44.0375 120.09625 40 112C 9.31 111.67 -21.38 111.34 -53 111C -53.66 112.98 -54.32 114.96 -55 117C -56.017452 119.20304 -57.075893 121.38741 -58.16455 123.55615C -58.476955 124.18126 -58.789364 124.80636 -59.111237 125.45041C -60.13548 127.497505 -61.16534 129.54172 -62.195312 131.58594C -62.91025 133.01208 -63.624836 134.4384 -64.33908 135.8649C -66.21295 139.60504 -68.09162 143.34274 -69.97131 147.07996C -71.89134 150.89949 -73.8068 154.72133 -75.72266 158.54297C -79.47732 166.03088 -83.237465 173.51604 -87 181C -92.28 181 -97.56 181 -103 181C -94.92218 163.57254 -86.29186 146.41922 -77.703575 129.23988C -76.44286 126.71775 -75.182724 124.19533 -73.92278 121.67281C -69.51644 112.85094 -65.108086 104.03008 -60.697754 95.210205C -56.60128 87.01786 -52.509304 78.82329 -48.419365 70.627686C -44.889088 63.55404 -41.355717 56.481945 -37.819946 49.411045C -35.71599 45.20338 -33.613255 40.995113 -31.513649 36.785275C -29.543917 32.836105 -27.570328 28.888885 -25.59381 24.94311C -24.872078 23.500689 -24.151697 22.05759 -23.43281 20.61375C -21.853422 17.442514 -20.257643 14.285225 -18.618782 11.143976C -17.633863 9.23108 -16.696188 7.2915483 -15.848198 5.3141384C -12.476987 -1.7524695 -7.1516647 -0.8212438 0 0zM-7 20C -15.175607 35.529163 -23.165638 51.144855 -31.013672 66.84204C -32.190586 69.19438 -33.36914 71.5458 -34.55078 73.89575C -36.282627 77.341286 -38.009212 80.7894 -39.734375 84.23828C -40.26545 85.29324 -40.796524 86.348206 -41.34369 87.435135C -41.825497 88.401825 -42.307304 89.368515 -42.80371 90.3645C -43.44225 91.63944 -43.44225 91.63944 -44.09369 92.94014C -45.134243 94.93004 -45.134243 94.93004 -45 97C -19.26 97 6.48 97 33 97C 26.816032 83.73771 26.816032 83.73771 20.15625 70.75781C 16.568798 64.03322 13.0980625 57.261253 9.71875 50.429688C 9.287478 49.55919 8.856206 48.688686 8.411865 47.79181C 6.652537 44.237125 4.896212 40.681004 3.1464844 37.121582C 1.8425081 34.47164 0.531218 31.82543 -0.78125 29.179688C -1.1770325 28.369501 -1.572815 27.559317 -1.9805908 26.724579C -3.7324588 22.680197 -3.7324588 22.680197 -7 20z" stroke="none" fill="#FFFFFF" fill-rule="nonzero" />
        <path transform="matrix(1 0 0 1 380.72266 1012.90234)"  d="M0 0C 1.6532227 0.01740234 1.6532227 0.01740234 3.3398438 0.03515625C 4.4445705 0.04417969 5.549297 0.05320312 6.6875 0.0625C 7.5421486 0.07410156 8.396797 0.08570313 9.277344 0.09765625C 9.63098 0.8071492 9.984616 1.5166421 10.3489685 2.247635C 13.728469 9.026909 17.110035 15.805147 20.493765 22.582312C 22.23212 26.064178 23.969753 29.546404 25.705566 33.02954C 27.38957 36.408638 29.075687 39.786674 30.763111 43.164066C 31.39752 44.434692 32.031242 45.70566 32.664165 46.977028C 36.353294 54.38609 40.129852 61.741005 44.003906 69.055176C 49.902496 80.20446 55.54915 91.47721 61.191406 102.75781C 62.29807 104.96792 63.404793 107.17799 64.511566 109.38805C 66.80713 113.97324 69.10109 118.55924 71.39404 123.14575C 74.33785 129.03348 77.28722 134.9184 80.23789 140.80269C 82.513885 145.3436 84.78628 149.88629 87.057625 154.42953C 88.144844 156.60278 89.23337 158.77539 90.323204 160.94734C 91.83464 163.9605 93.341064 166.97612 94.84619 169.99243C 95.29802 170.89047 95.74985 171.7885 96.21536 172.71375C 96.62162 173.53046 97.02788 174.34715 97.44644 175.18861C 97.80217 175.89952 98.1579 176.61044 98.52441 177.3429C 99.27734 179.09766 99.27734 179.09766 99.27734 181.09766C 94.32735 181.09766 89.37734 181.09766 84.27734 181.09766C 76.30999 166.16254 68.69957 151.06119 61.152344 135.91016C 57.233593 128.05203 53.314842 120.19391 49.277344 112.09766C 18.587343 111.767654 -12.102656 111.43765 -43.722656 111.09766C -44.382656 113.07766 -45.042656 115.057655 -45.722656 117.09766C -46.74011 119.3007 -47.79855 121.48507 -48.887207 123.65381C -49.19961 124.278915 -49.51202 124.904015 -49.833893 125.548065C -50.858135 127.59516 -51.887997 129.63937 -52.91797 131.6836C -53.632908 133.10974 -54.347492 134.53606 -55.061737 135.96255C -56.935608 139.7027 -58.814274 143.4404 -60.69397 147.17761C -62.614 150.99715 -64.52946 154.81898 -66.44531 158.64062C -70.199974 166.12854 -73.96012 173.6137 -77.72266 181.09766C -83.002655 181.09766 -88.28265 181.09766 -93.72266 181.09766C -87.110725 166.96973 -80.239746 152.98343 -73.25781 139.03516C -72.1735 136.86586 -71.08931 134.6965 -70.00523 132.5271C -67.74836 128.01189 -65.49006 123.49738 -63.230713 118.9834C -60.362797 113.253265 -57.498478 107.52134 -54.63523 101.788864C -52.401657 97.31807 -50.166145 92.84824 -47.93008 88.37869C -46.87435 86.26788 -45.81919 84.15679 -44.764664 82.04538C -39.311287 71.12909 -33.79657 60.25434 -28.086573 49.46979C -25.03997 43.715313 -22.075762 37.925606 -19.1875 32.089844C -18.737904 31.186865 -18.28831 30.283888 -17.825089 29.353546C -16.43473 26.560928 -15.047091 23.766975 -13.660156 20.972656C -11.79656 17.218908 -9.930307 13.466497 -8.0625 9.714844C -7.6396823 8.86091 -7.216865 8.006977 -6.7812347 7.1271667C -6.3931513 6.347697 -6.005068 5.568227 -5.6052246 4.7651367C -5.2645445 4.07854 -4.9238644 3.3919427 -4.5728607 2.6845398C -3.184777 0.09371948 -3.138707 0.11257916 0 0zM2.2773438 20.097656C 1.8450245 20.967531 1.4127051 21.837408 0.96728516 22.733643C -13.462886 51.75345 -13.462886 51.75345 -18.972656 62.097656C -22.860643 69.40388 -26.628922 76.76631 -30.347656 84.16016C -31.148647 85.742805 -31.148647 85.742805 -31.96582 87.35742C -32.45534 88.335175 -32.944862 89.31293 -33.44922 90.32031C -33.888306 91.194374 -34.327393 92.06844 -34.779785 92.968994C -35.857655 95.014404 -35.857655 95.014404 -35.722656 97.09766C -9.9826565 97.09766 15.757343 97.09766 42.277344 97.09766C 34.43347 80.53381 34.43347 80.53381 26.339844 64.09766C 26.044971 63.50913 25.750097 62.9206 25.44629 62.31424C 18.322504 48.100792 10.969467 34.01227 3.2773438 20.097656C 2.9473438 20.097656 2.6173437 20.097656 2.2773438 20.097656z" stroke="none" fill="#FFFFFF" fill-rule="nonzero" />
        <path transform="matrix(1 0 0 1 1200 1015)"  d="M0 0C 62.7 0 125.4 0 190 0C 189 13 189 13 188 14C 185.32208 14.095131 182.67015 14.12554 179.99194 14.113525C 179.13937 14.113646 178.2868 14.113767 177.4084 14.113891C 174.63553 14.113141 171.86272 14.105513 169.08984 14.097656C 167.38318 14.096187 165.67651 14.095166 163.96985 14.0946045C 157.62573 14.089352 151.28162 14.07539 144.9375 14.0625C 130.76813 14.041875 116.59875 14.02125 102 14C 102 68.45 102 122.9 102 179C 97.38 179 92.76 179 88 179C 88 124.55 88 70.1 88 14C 58.96 14 29.92 14 0 14C 0 9.38 0 4.76 0 0z" stroke="none" fill="#FFFFFF" fill-rule="nonzero" />
        <path transform="matrix(1 0 0 1 2392 1015)"  d="M0 0C 4.62 0 9.24 0 14 0C 14 54.45 14 108.9 14 165C 59.54 165 105.08 165 152 165C 152 169.62 152 174.24 152 179C 101.84 179 51.68 179 0 179C 0 119.93 0 60.86 0 0z" stroke="none" fill="#FFFFFF" fill-rule="nonzero" />
        <path transform="matrix(1 0 0 1 2186 1015)"  d="M0 0C 4.62 0 9.24 0 14 0C 14 54.45 14 108.9 14 165C 59.54 165 105.08 165 152 165C 152 169.62 152 174.24 152 179C 101.84 179 51.68 179 0 179C 0 119.93 0 60.86 0 0z" stroke="none" fill="#FFFFFF" fill-rule="nonzero" />
	</g>
</g>
</svg>